<?xml version="1.0" encoding="UTF-8"?>
<svg id="Layer_1" xmlns="http://www.w3.org/2000/svg" version="1.1" viewBox="0 0 300 51.3">
  <!-- Generator: Adobe Illustrator 29.6.0, SVG Export Plug-In . SVG Version: 2.1.1 Build 207)  -->
  <path d="M160.94,36.53c3.61,4.12,8.68.68,12.29-1.56.98.9,1.45,2.05,1.59,3.39-3.48,4.09-10.58,5.75-15.24,2.88-.53-.33-1.29-1.49-1.95-1.56-.97-.1-2.03,1.23-2.84,1.65-3.14,1.61-7.27,1.28-8.42-2.52-1.25-4.12.3-7.94.18-12.02-2.39,1.55-3.51,3.78-4.43,6.38-.65,1.82-1.74,7.7-3.36,8.5-.96.48-2.77-.99-3.17-1.86.37-2.7.58-5.44.79-8.16.29-3.66-.16-7.43,1.85-10.66l3.3,1.83c.2.44-.83,2.11,0,2.64,1.75-2.41,6.68-4.79,9.02-2.01,1.73,2.05-.7,10.65-.18,14,.11.71.79.44,1.31.24.37-.14,3.48-1.78,3.58-1.96.15-2.27.04-3.87.79-6.06,1.56-4.57,6.8-10.23,12.12-8.93,1.68.41,2.94,1.79,3.07,3.53.35,4.87-6.36,9.19-9.65,11.98-.18.15-.41.26-.66.26ZM167.01,24.95c-3.66-.24-6.21,4.07-7.13,7.11,2.78-1.95,5.5-4.06,7.13-7.11Z"/>
  <path d="M209.44,19.23c.25.33.62,2.29,1.01,2.28,2.81-3.38,8.4-4.23,10.3.53,2.73-2.36,6.48-4.88,10.31-4.08,1.45.3,3.17,1.41,3.49,2.95,1.03,5.06-4.64,12.13-4.43,17.45.5.49,4.27-1.75,5.15-1.82l1.42,3.37c-2.27,1.78-4.63,3.35-7.71,2.67-.21-.05-.22-.43-.38-.51-.82-.42-1.77-.78-2.21-1.69-2.13-4.46,2.07-11.53,3.38-15.9.35-1.19,1.24-2.77-.7-2.28-1.47.37-4.16,1.89-5.14,3.03-2.43,2.82-1.67,8.65-4.43,10.95-.81.67-3.49-1.14-3.64-1.88-.26-1.33.96-4.8,1.07-6.57.07-1.14.13-3.52-.25-4.51-.11-.3.15-.44-.41-.36-1.05.13-2.38,1.45-3.04,2.24-1.41,1.69-3.83,7.65-4.58,9.92-.49,1.5-1.09,7.14-3.23,7.34-.39.04-2.07-1.23-2.24-1.51-.67-1.1.16-1.96.37-3.02,1-5.12,1.74-10.3,2.28-15.49l-4.88,3.15c-.25,0-.89-1.67-1.04-2.03-.02-.06-.37-.07-.4-.25-.57-2.68,4.56-5.42,6.87-5.23.64.05,2.7.8,3.07,1.28Z"/>
  <path d="M49.41,5.04c.06.03.11.27.31.4.43.28,1.6.26,1.59,1.15,0,.46-.87,2.17-1.07,2.88-1.5,5.15-2.35,10.47-3.36,15.73,1.11-.14,1.89-1.07,2.91-1.44,4.33-1.56,5.94.37,6.57,4.5s.04,9.14-.83,13.07c-.14.62-.17,1.12-.86,1.25-.15.03-2.33-.27-2.44-.33-1.36-.76.17-7.01.21-8.74s-.05-4.02-.27-5.81c-.04-.3.1-.53-.39-.38-1.37.41-3.84,2.56-4.74,3.7-2.86,3.64-2.66,8.64-4.79,12.62-1.21-.52-3.5-.11-3.27-1.94,2.88-10.18,3.86-21.4,6.71-31.51.58-2.05,1.28-4.09,2.64-5.76.38.16.73.41,1.09.6Z"/>
  <path d="M252.93,42.73c-1.15-.98-1.54-2.35-2.36-3.56-2.45,3.73-6.52,5.09-9.49,1.03-2.61-3.57-1.65-9.18.24-12.89.25-.49,2.08-3.48,2.3-3.63.07-.05.36.21.43.17.11-.07.58-.97,1.12-1.38,2.59-1.98,6.18-2.01,8.81-.16.07,1.96.26,3.96.16,5.95-.07,1.34-.54,2.86-.55,4.21-.02,1.78,1.15,7.47,3.16,7.91l2.41-.82,1.2,2.77c-1.73,3.02-5.02,2.47-7.44.42ZM249.12,24.94c-3.11,1.1-5.4,5.35-5.56,8.54-.08,1.73.12,4.38,1.95,5.13,1.9-2,3.6-5.49,3.6-8.27v-5.4Z"/>
  <path d="M34.1,26.44c-.27.37-1.9,1.66-2.3,1.8-1.1.41-1.83-2.08-2.61-2.64.94-1.05,2.96-2.12.71-3.09-1.96-.85-4.68,2.09-5.88,3.48-3.09,3.59-7.95,12.76-.8,14.76,4.73,1.32,6.44-3.84,9.49-6.06.71.75,1.36,1.81,2.53,1.84l-.02.36c-2.66,5.58-7.7,9.83-14.24,7.41-12.73-4.72-.5-26.23,8.07-26.07,4.03.08,7.72,4.53,5.05,8.2Z"/>
  <path d="M110.51,20.47c2.48-.11,5.06-.18,7.39.79-.25,1.02-.98,2.05-.53,3.14-2.3.75-4.77.54-7.12.28-.23,4.23-.29,9.86,1.31,13.83.95,2.37,1.89,1,3.96.91.13.51.29,1.02.38,1.55.1.62-.34,1.5.42,1.35v.26c-4.53,3.29-8.1.22-9.38-4.46-1.14-4.16-.94-8.74-1.15-13.02l-3.45-1.38,1.35-3.23,2.59-.04c.32-4.6.76-9.3,2.92-13.42.75.52,3.09,1.23,3.14,2.22.07,1.32-1.15,4.86-1.4,6.44-.1.61-.59,4.6-.42,4.77Z"/>
  <path d="M98.21,21.4c.38.35,1.25,1.25,1.35,1.67.13.56-2.15,2.32-2.7,2.34-.98.05-2.51-2.7-4.58-.35-2.68,3.04,1.28,4.4,3.18,6.32s3.32,4.17,2.51,6.99c-1.51,5.24-9.6,7.85-13.33,3.28-.64-.78-1.1-2.13-.76-3.12.09-.27,1.03-.64,1-1.37,1.12-.12,2.22.79,3.18.41.15.71-.16.38-.53.66,1.09,2.96,6.19.86,6.34-1.33.13-2.06-6.19-4.89-6.8-8.73-.92-5.81,6.27-11.24,11.14-6.77Z"/>
  <path d="M66.67,23.38l-.52,4.46c1.9-1.44,3.94-3.08,6.48-3.17,1.37-.04,4.02.55,4,2.2,0,.57-1.3,2.19-1.78,2.43-.44.22-.83-.4-1.44-.44-1.8-.13-4.24,1.88-5.15,3.32-2.22,3.48-2.04,7.75-3.73,11.43l-.34.02c-.75-.5-2.9-.58-3.06-1.45.39-5.09.03-10.45.65-15.48.23-1.85.72-2.99,1.47-4.66l3.42,1.33Z"/>
  <path d="M275.26,21.27l-.56,3.65c-1.3-.12-2.09.16-3.24.59-3.84,1.44-4.84,2.94-5.42,6.97-.48,3.35.32,6.64-.7,9.85-1.49.27-3.61.11-3.82-1.72-.36-3.11-.1-7.06-.26-10.27-.15-2.87-1.1-5.92-.26-8.82l3.39.3.7,2.86c2.63-2.42,6.52-4.39,10.17-3.41Z"/>
  <path d="M279.85,42.48c-.07-.03-.08-.31-.3-.4-.49-.19-1.45-.05-1.91-.71.55-2.23,1.07-4.51,1.38-6.79.57-4.21.17-8.95,2.19-12.76l3.04,1.15.25.5c-1.35,6.35-.59,13.34-3.4,19.26-.18.12-.98-.16-1.24-.25Z"/>
  <path d="M128.36,23.73c.21.13.51.65,1.04.67l.11.38c-1.1,4.08-.49,8.48-.79,12.66-.25,3.51-1.18,7.31-4.77,3.43.59-4.54.08-9.4.67-13.91.14-1.09.61-3.23,1.58-3.9.49-.34,1.61.32,2.16.66Z"/>
  <path d="M83.52,24.47c.34,1.05.11,2.12.02,3.2-.25,2.88-.85,9.05-1.69,11.62-.35,1.06-1.13,1.94-1.46,3l-.62.02c-.39-.91-2.39-1-2.54-1.98-.17-1.16,1.07-5.82,1.3-7.4.48-3.24.16-6.69,2.01-9.57l2.98,1.1Z"/>
  <path d="M83.93,14.85c.45.35.92.72,1.47.91v.31c-.51,1.28-1.23,2.64-2.25,3.59-1.57,1.46-1.91-.91-3.3-1.47-.28-.94,2.01-4.09,2.57-4.28,1.05-.35,1.09.61,1.5.93Z"/>
  <path d="M284.51,17.04l-3.72.15-1.26-3.75.19-.5c.88-.29,2.56-1.53,3.35-.93,1.36,1.04,1.11,3.52,1.44,5.03Z"/>
  <path d="M127.27,13.36c.5.88,2.66,1.6,2.72,2.54.07,1.02-1.99,3.24-2.72,4.03-.53-.76-2.47-1.77-2.45-2.71s1.88-2.96,2.45-3.86Z"/>
</svg>